<?xml version="1.0" standalone="no"?><!DOCTYPE svg PUBLIC "-//W3C//DTD SVG 1.1//EN" "http://www.w3.org/Graphics/SVG/1.1/DTD/svg11.dtd"><svg t="1552874018033" class="icon" style="" viewBox="0 0 1024 1024" version="1.1" xmlns="http://www.w3.org/2000/svg" p-id="10571" xmlns:xlink="http://www.w3.org/1999/xlink" width="84" height="84"><defs><style type="text/css"></style></defs><path d="M484.3776 315.9552c0 0 491.8272 67.8912 503.3216 138.9568 11.4944 71.0656-149.6064 423.5008-261.8112 453.7088-112.1536 30.208-678.3744-149.6576-680.3712-222.9504C42.7776 584.8064 111.9488 439.68 484.3776 315.9552zM382.5152 434.2784c-43.6992 43.1616 148.6848 61.824 171.6736 58.9824 23.04-2.8928 99.3024-81.9968 83.3536-90.624-15.8976-8.6528-173.952-31.6672-173.952-31.6672S426.2144 391.1168 382.5152 434.2784zM640.0512 475.5968c-30.7456 44.2112 145.7408 76.5952 164.2496 82.3808s52.5568-25.9072 66.3552-37.4016c13.9008-11.52 18.7392-28.7744 7.1936-44.9792-11.4944-16.2048-175.4624-64.3584-175.4624-64.3584S670.7456 431.3856 640.0512 475.5968zM420.4544 710.4512c20.1472 34.5088 219.5968 55.5008 219.5968 55.5008s114.0992-104.3968 131.4048-151.3984c-25.9072-46.9504-215.7568-70.9632-215.7568-70.9632C471.3216 611.5584 431.9488 675.9424 420.4544 710.4512zM173.5424 580.992c-94.4384 83.4048 87.9104 105.9072 132.3776 103.552 35.1488-1.8432 149.0688-117.9392 157.6704-140.9792 8.6528-22.9888-158.2336-58.7008-158.2336-58.7008S268.0064 497.5616 173.5424 580.992z" p-id="10572"></path><path d="M361.6768 276.4288c0 0 50.4832 82.56 145.5104 44.7232C507.1872 321.152 460.2624 250.0864 361.6768 276.4288" p-id="10573"></path><path d="M425.9584 201.7792c0 0 9.6256 66.3296 81.152 67.072C507.1104 268.8512 496.5632 210.816 425.9584 201.7792" p-id="10574"></path><path d="M597.9904 201.7792c0 0-9.6512 66.3296-81.152 67.072C516.8384 268.8512 527.3856 210.816 597.9904 201.7792" p-id="10575"></path><path d="M669.3888 276.4288c0 0-50.4576 82.56-145.536 44.7232C523.8784 321.152 570.8032 250.0864 669.3888 276.4288" p-id="10576"></path><path d="M509.3632 220.032c0 0-36.608-28.3136 0.8192-108.0064C510.208 112.0256 551.552 182.5792 509.3632 220.032" p-id="10577"></path></svg>