<?xml version="1.0" standalone="no"?><!DOCTYPE svg PUBLIC "-//W3C//DTD SVG 1.1//EN" "http://www.w3.org/Graphics/SVG/1.1/DTD/svg11.dtd"><svg t="1552570427521" class="icon" style="" viewBox="0 0 1024 1024" version="1.1" xmlns="http://www.w3.org/2000/svg" p-id="5204" xmlns:xlink="http://www.w3.org/1999/xlink" width="200" height="200"><defs><style type="text/css"></style></defs><path d="M559.261538 748.307692h-98.461538c-15.753846 0-27.569231-11.815385-27.569231-27.56923v-29.538462c0-82.707692 53.169231-157.538462 131.938462-185.107692 23.630769-7.876923 45.292308-21.661538 63.015384-41.353846 98.461538-118.153846 7.876923-259.938462-110.276923-263.876924-43.323077-1.969231-84.676923 13.784615-116.184615 43.323077-25.6 23.630769-41.353846 53.169231-45.292308 86.646154-1.969231 11.815385-13.784615 21.661538-29.538461 21.661539h-98.461539c-17.723077 0-31.507692-13.784615-29.538461-31.507693 7.876923-74.830769 41.353846-141.784615 94.523077-194.953846 63.015385-59.076923 143.753846-90.584615 230.4-88.615384C687.261538 43.323077 821.169231 177.230769 827.076923 340.676923c5.907692 137.846154-78.769231 261.907692-206.769231 309.169231-17.723077 7.876923-29.538462 21.661538-29.538461 39.384615v29.538462c0 17.723077-15.753846 29.538462-31.507693 29.538461zM590.769231 955.076923c0 15.753846-13.784615 29.538462-29.538462 29.538462h-98.461538c-15.753846 0-29.538462-13.784615-29.538462-29.538462v-98.461538c0-15.753846 13.784615-29.538462 29.538462-29.538462h98.461538c15.753846 0 29.538462 13.784615 29.538462 29.538462v98.461538z" p-id="5205"></path></svg>