<?xml version="1.0" standalone="no"?>
<!DOCTYPE svg PUBLIC "-//W3C//DTD SVG 20010904//EN"
 "http://www.w3.org/TR/2001/REC-SVG-20010904/DTD/svg10.dtd">
<svg version="1.0" xmlns="http://www.w3.org/2000/svg"
 width="128.000000pt" height="128.000000pt" viewBox="0 0 128.000000 128.000000"
 preserveAspectRatio="xMidYMid meet">

<g transform="translate(0.000000,128.000000) scale(0.100000,-0.100000)"
fill="#000000" stroke="none">
<path d="M515 1087 c-109 -37 -212 -119 -266 -213 -24 -42 -58 -156 -59 -196
0 -5 29 -8 65 -8 64 0 65 0 65 28 0 87 81 201 178 249 49 24 69 28 142 28 101
0 154 -20 224 -85 135 -125 135 -325 0 -450 -86 -80 -205 -108 -315 -76 -61
17 -139 68 -139 90 0 8 27 39 60 69 33 29 60 57 60 60 0 4 -76 7 -170 7 l-170
0 0 -172 0 -172 58 57 c32 31 61 57 66 57 5 0 24 -14 44 -31 20 -18 66 -46
102 -63 61 -29 72 -31 180 -31 111 0 118 1 185 34 93 46 175 129 218 218 30
64 32 75 32 178 0 103 -2 114 -32 178 -42 89 -125 172 -217 218 -64 31 -79 34
-170 36 -64 2 -116 -2 -141 -10z"/>
</g>
</svg>
