<svg height="512pt" viewBox="0 0 512 512" width="512pt" xmlns="http://www.w3.org/2000/svg"><path d="m407.671875 38.042969h-234.878906v97.402343h285.042969v-47.257812c0-27.652344-22.503907-50.144531-50.164063-50.144531zm0 0" fill="#ccf4ff"/><path d="m274.714844 150.433594h-274.714844v-90.378906c0-33.117188 26.949219-60.054688 60.078125-60.054688h87.835937c8.730469 0 17.140626 1.839844 24.78125 5.296875 10.671876 4.808594 19.839844 12.734375 26.269532 23.089844zm0 0" fill="#ffb129"/><path d="m512 170.667969v291.125c0 27.6875-22.539062 50.207031-50.238281 50.207031h-411.523438c-27.699219 0-50.238281-22.519531-50.238281-50.207031v-341.34375h461.761719c27.699219 0 50.238281 22.527343 50.238281 50.21875zm0 0" fill="#ffda2f"/><path d="m512 170.667969v291.125c0 27.6875-22.539062 50.207031-50.238281 50.207031h-205.761719v-391.550781h205.761719c27.699219 0 50.238281 22.527343 50.238281 50.21875zm0 0" fill="#ffb129"/><path d="m274.171875 437.011719c-6.042969 1.269531-12.121094 2.019531-18.171875 2.269531-1.578125.078125-3.160156.109375-4.730469.109375-21.320312 0-42.199219-6.179687-60.460937-18.121094-24.777344-16.210937-41.757813-41.097656-47.808594-70.078125-3.601562-17.222656-3.089844-34.671875 1.328125-51.179687l-22.347656 10.898437c-7.441407 3.628906-16.421875.539063-20.058594-6.898437-3.632813-7.453125-.542969-16.433594 6.898437-20.0625l49.230469-24.027344c9.308594-4.542969 20.359375-1.273437 25.710938 7.609375l28.226562 46.9375c4.273438 7.101562 1.972657 16.320312-5.128906 20.589844-2.417969 1.453125-5.078125 2.140625-7.710937 2.140625-5.089844 0-10.058594-2.589844-12.867188-7.269531l-13.070312-21.730469c-3.101563 11.902343-3.441407 24.460937-.851563 36.851562 4.421875 21.140625 16.800781 39.289063 34.871094 51.109375 14.648437 9.589844 31.609375 14.089844 48.769531 13.089844 4.011719-.230469 8.03125-.761719 12.03125-1.601562 8.109375-1.699219 16.058594 3.5 17.75 11.613281 1.699219 8.109375-3.5 16.058593-11.609375 17.75zm0 0" fill="#fff"/><g fill="#ccf4ff"><path d="m390.679688 329.816406-20.089844 12.488282c4.480468-16.601563 5.023437-34.140626 1.402344-51.460938-6.476563-31-19.945313-51.847656-47.808594-70.078125-15.164063-9.921875-32.667969-16.027344-50.613282-17.652344-8.238281-.738281-15.546874 5.339844-16.292968 13.589844s5.335937 15.542969 13.589844 16.289063c13.066406 1.183593 25.824218 5.636718 36.890624 12.878906 18.070313 11.820312 30.453126 29.972656 34.871094 51.109375 2.242188 10.734375 2.804688 26.0625-2.164062 41.375l-15.683594-20.910157c-4.972656-6.628906-14.375-7.96875-21-3-6.628906 4.972657-7.972656 14.375-3 21l32.867188 43.820313c3.898437 5.199219 9.800781 7.972656 15.832031 7.972656 3.589843 0 7.230469-.980469 10.511719-3.023437l46.523437-28.917969c7.035156-4.375 9.195313-13.621094 4.820313-20.660156-4.371094-7.035157-13.617188-9.195313-20.65625-4.820313zm0 0"/><path d="m274.171875 437.011719c-6.042969 1.269531-12.121094 2.019531-18.171875 2.269531v-30.03125c4.011719-.230469 8.03125-.761719 12.03125-1.601562 8.109375-1.699219 16.058594 3.5 17.75 11.613281 1.699219 8.109375-3.5 16.058593-11.609375 17.75zm0 0"/></g></svg>